solid Housing
facet normal 1.0 0.0 0.0
  outer loop
    vertex 101.0612067028462 83.75577882265353 -9.408642599999988
    vertex 101.0612067028462 6.031778822653529 0.24335740000001144
    vertex 101.0612067028462 6.031778822653529 -9.408642599999988
  endloop
endfacet
facet normal 1.0 0.0 0.0
  outer loop
    vertex 101.0612067028462 6.031778822653529 0.24335740000001144
    vertex 101.0612067028462 83.75577882265353 -9.408642599999988
    vertex 101.0612067028462 83.75577882265353 0.24335740000001144
  endloop
endfacet
facet normal -7.585491323331013e-17 -1.0 -9.29168002436168e-17
  outer loop
    vertex 101.0612067028462 6.031778822653529 0.24335740000001144
    vertex 94.58420670284617 6.031778822653529 -9.408642599999988
    vertex 101.0612067028462 6.031778822653529 -9.408642599999988
  endloop
endfacet
facet normal -7.585491323331013e-17 -1.0 -9.29168002436168e-17
  outer loop
    vertex 94.58420670284617 6.031778822653529 -9.408642599999988
    vertex 101.0612067028462 6.031778822653529 0.24335740000001144
    vertex 94.58420670284617 6.031778822653535 -6.36064259999999
  endloop
endfacet
facet normal -7.585491323331013e-17 -1.0 -9.29168002436168e-17
  outer loop
    vertex 94.58420670284617 6.031778822653535 -6.36064259999999
    vertex 101.0612067028462 6.031778822653529 0.24335740000001144
    vertex 94.58420670284617 6.031778822653532 -2.8046425999999913
  endloop
endfacet
facet normal -7.585491323331013e-17 -1.0 -9.29168002436168e-17
  outer loop
    vertex 94.58420670284617 6.031778822653535 -6.36064259999999
    vertex 94.58420670284617 6.031778822653532 -2.8046425999999913
    vertex -18.115593297153886 6.031778822653541 -6.36064259999999
  endloop
endfacet
facet normal -7.585491323331013e-17 -1.0 -9.29168002436168e-17
  outer loop
    vertex 94.58420670284617 6.031778822653532 -2.8046425999999913
    vertex 101.0612067028462 6.031778822653529 0.24335740000001144
    vertex 94.58420670284617 6.031778822653529 0.24335740000001144
  endloop
endfacet
facet normal -7.585491323331013e-17 -1.0 -9.29168002436168e-17
  outer loop
    vertex -18.115593297153886 6.031778822653537 -2.8046425999999913
    vertex -18.115593297153886 6.031778822653541 -6.36064259999999
    vertex 94.58420670284617 6.031778822653532 -2.8046425999999913
  endloop
endfacet
facet normal -1.0 0.0 0.0
  outer loop
    vertex 94.58420670284617 6.031778822653535 -6.36064259999999
    vertex 94.58420670284617 9.14073882265353 -9.408642599999988
    vertex 94.58420670284617 6.031778822653529 -9.408642599999988
  endloop
endfacet
facet normal -1.0 0.0 0.0
  outer loop
    vertex 94.58420670284617 9.14073882265353 -9.408642599999988
    vertex 94.58420670284617 6.031778822653535 -6.36064259999999
    vertex 94.58420670284617 9.140738822653532 -6.360642599999987
  endloop
endfacet
facet normal -7.656710514656245e-17 -1.0 9.070449547591148e-16
  outer loop
    vertex 94.58420670284617 9.14073882265353 0.24335740000001144
    vertex -15.006633297153886 9.140738822653535 -2.804642599999987
    vertex 94.58420670284617 9.14073882265353 -2.804642599999988
  endloop
endfacet
facet normal -7.656710514656245e-17 -1.0 9.070449547591148e-16
  outer loop
    vertex -15.006633297153886 9.140738822653535 -2.804642599999987
    vertex 94.58420670284617 9.14073882265353 0.24335740000001144
    vertex -15.006633297153888 9.14073882265354 0.24335740000001282
  endloop
endfacet
facet normal -1.0 0.0 0.0
  outer loop
    vertex 94.58420670284617 9.14073882265353 0.24335740000001144
    vertex 94.58420670284617 6.031778822653532 -2.8046425999999913
    vertex 94.58420670284617 6.031778822653529 0.24335740000001144
  endloop
endfacet
facet normal -1.0 0.0 0.0
  outer loop
    vertex 94.58420670284617 6.031778822653532 -2.8046425999999913
    vertex 94.58420670284617 9.14073882265353 0.24335740000001144
    vertex 94.58420670284617 9.14073882265353 -2.804642599999988
  endloop
endfacet
facet normal -1.5313421029312498e-16 1.0 -1.8140899095182295e-15
  outer loop
    vertex -15.006633297153861 80.6468188226535 -2.804642599999987
    vertex 94.58420670284617 80.64681882265351 0.24335740000001144
    vertex 94.58420670284617 80.6468188226535 -2.804642599999988
  endloop
endfacet
facet normal -1.5313421029312498e-16 1.0 -1.8140899095182295e-15
  outer loop
    vertex 94.58420670284617 80.64681882265351 0.24335740000001144
    vertex -15.006633297153861 80.6468188226535 -2.804642599999987
    vertex -15.006633297153861 80.6468188226535 0.24335740000001282
  endloop
endfacet
facet normal -1.0 0.0 0.0
  outer loop
    vertex 94.58420670284617 83.7557788226535 -6.360642599999987
    vertex 94.58420670284617 80.64681882265351 -9.408642599999988
    vertex 94.58420670284617 80.6468188226535 -6.360642599999987
  endloop
endfacet
facet normal -1.0 0.0 0.0
  outer loop
    vertex 94.58420670284617 80.64681882265351 -9.408642599999988
    vertex 94.58420670284617 83.7557788226535 -6.360642599999987
    vertex 94.58420670284617 83.75577882265353 -9.408642599999988
  endloop
endfacet
facet normal 0.0 0.0 1.0
  outer loop
    vertex 101.0612067028462 6.031778822653529 0.24335740000001144
    vertex 94.58420670284617 9.14073882265353 0.24335740000001144
    vertex 94.58420670284617 6.031778822653529 0.24335740000001144
  endloop
endfacet
facet normal 0.0 0.0 1.0
  outer loop
    vertex 94.58420670284617 9.14073882265353 0.24335740000001144
    vertex 101.0612067028462 6.031778822653529 0.24335740000001144
    vertex 94.58420670284617 80.64681882265351 0.24335740000001144
  endloop
endfacet
facet normal 0.0 0.0 1.0
  outer loop
    vertex 94.58420670284617 80.64681882265351 0.24335740000001144
    vertex 101.0612067028462 6.031778822653529 0.24335740000001144
    vertex 94.58420670284617 83.75577882265353 0.24335740000001144
  endloop
endfacet
facet normal 0.0 0.0 1.0
  outer loop
    vertex 94.58420670284617 83.75577882265353 0.24335740000001144
    vertex 101.0612067028462 6.031778822653529 0.24335740000001144
    vertex 101.0612067028462 83.75577882265353 0.24335740000001144
  endloop
endfacet
facet normal 0.0 0.0 1.0
  outer loop
    vertex 94.58420670284617 9.14073882265353 0.24335740000001144
    vertex -15.006633297153861 80.6468188226535 0.24335740000001282
    vertex -15.006633297153888 9.14073882265354 0.24335740000001282
  endloop
endfacet
facet normal 0.0 0.0 1.0
  outer loop
    vertex -15.006633297153861 80.6468188226535 0.24335740000001282
    vertex 94.58420670284617 9.14073882265353 0.24335740000001144
    vertex 94.58420670284617 80.64681882265351 0.24335740000001144
  endloop
endfacet
facet normal 0.0 0.0 -1.0
  outer loop
    vertex 101.0612067028462 83.75577882265353 -9.408642599999988
    vertex 94.58420670284617 80.64681882265351 -9.408642599999988
    vertex 94.58420670284617 83.75577882265353 -9.408642599999988
  endloop
endfacet
facet normal 0.0 0.0 -1.0
  outer loop
    vertex 94.58420670284617 80.64681882265351 -9.408642599999988
    vertex 101.0612067028462 83.75577882265353 -9.408642599999988
    vertex 94.58420670284617 9.14073882265353 -9.408642599999988
  endloop
endfacet
facet normal 0.0 0.0 -1.0
  outer loop
    vertex 94.58420670284617 9.14073882265353 -9.408642599999988
    vertex 101.0612067028462 83.75577882265353 -9.408642599999988
    vertex 94.58420670284617 6.031778822653529 -9.408642599999988
  endloop
endfacet
facet normal 0.0 0.0 -1.0
  outer loop
    vertex 94.58420670284617 6.031778822653529 -9.408642599999988
    vertex 101.0612067028462 83.75577882265353 -9.408642599999988
    vertex 101.0612067028462 6.031778822653529 -9.408642599999988
  endloop
endfacet
facet normal 0.0 0.0 -1.0
  outer loop
    vertex -15.006633297153861 80.6468188226535 -9.408642599999988
    vertex 94.58420670284617 9.14073882265353 -9.408642599999988
    vertex -15.006633297153888 9.14073882265354 -9.408642599999988
  endloop
endfacet
facet normal 0.0 0.0 -1.0
  outer loop
    vertex 94.58420670284617 9.14073882265353 -9.408642599999988
    vertex -15.006633297153861 80.6468188226535 -9.408642599999988
    vertex 94.58420670284617 80.64681882265351 -9.408642599999988
  endloop
endfacet
facet normal -1.6898371759895824e-16 1.0 2.8038261308153804e-32
  outer loop
    vertex -18.115593297153858 83.7557788226535 -2.804642599999988
    vertex 94.58420670284617 83.7557788226535 -6.360642599999987
    vertex -18.115593297153858 83.7557788226535 -6.360642599999987
  endloop
endfacet
facet normal -1.6898371759895824e-16 1.0 2.8038261308153804e-32
  outer loop
    vertex 94.58420670284617 83.7557788226535 -6.360642599999987
    vertex 101.0612067028462 83.75577882265353 -9.408642599999988
    vertex 94.58420670284617 83.75577882265353 -9.408642599999988
  endloop
endfacet
facet normal -1.6898371759895824e-16 1.0 2.8038261308153804e-32
  outer loop
    vertex 101.0612067028462 83.75577882265353 -9.408642599999988
    vertex 94.58420670284617 83.7557788226535 -6.360642599999987
    vertex 101.0612067028462 83.75577882265353 0.24335740000001144
  endloop
endfacet
facet normal -1.6898371759895824e-16 1.0 2.8038261308153804e-32
  outer loop
    vertex 101.0612067028462 83.75577882265353 0.24335740000001144
    vertex 94.58420670284617 83.7557788226535 -6.360642599999987
    vertex 94.58420670284617 83.7557788226535 -2.804642599999988
  endloop
endfacet
facet normal -1.6898371759895824e-16 1.0 2.8038261308153804e-32
  outer loop
    vertex 94.58420670284617 83.7557788226535 -2.804642599999988
    vertex 94.58420670284617 83.7557788226535 -6.360642599999987
    vertex -18.115593297153858 83.7557788226535 -2.804642599999988
  endloop
endfacet
facet normal -1.6898371759895824e-16 1.0 2.8038261308153804e-32
  outer loop
    vertex 101.0612067028462 83.75577882265353 0.24335740000001144
    vertex 94.58420670284617 83.7557788226535 -2.804642599999988
    vertex 94.58420670284617 83.75577882265353 0.24335740000001144
  endloop
endfacet
facet normal 7.477767004740419e-18 -1.871014405062601e-17 1.0
  outer loop
    vertex -18.115593297153886 6.031778822653537 -2.8046425999999913
    vertex -15.006633297153886 9.140738822653535 -2.804642599999987
    vertex -18.115593297153858 83.7557788226535 -2.804642599999988
  endloop
endfacet
facet normal 7.477767004740419e-18 -1.871014405062601e-17 1.0
  outer loop
    vertex -15.006633297153886 9.140738822653535 -2.804642599999987
    vertex -18.115593297153886 6.031778822653537 -2.8046425999999913
    vertex 94.58420670284617 6.031778822653532 -2.8046425999999913
  endloop
endfacet
facet normal 7.477767004740419e-18 -1.871014405062601e-17 1.0
  outer loop
    vertex -15.006633297153886 9.140738822653535 -2.804642599999987
    vertex 94.58420670284617 6.031778822653532 -2.8046425999999913
    vertex 94.58420670284617 9.14073882265353 -2.804642599999988
  endloop
endfacet
facet normal 7.477767004740419e-18 -1.871014405062601e-17 1.0
  outer loop
    vertex -18.115593297153858 83.7557788226535 -2.804642599999988
    vertex -15.006633297153861 80.6468188226535 -2.804642599999987
    vertex 94.58420670284617 83.7557788226535 -2.804642599999988
  endloop
endfacet
facet normal 7.477767004740419e-18 -1.871014405062601e-17 1.0
  outer loop
    vertex -15.006633297153861 80.6468188226535 -2.804642599999987
    vertex -18.115593297153858 83.7557788226535 -2.804642599999988
    vertex -15.006633297153886 9.140738822653535 -2.804642599999987
  endloop
endfacet
facet normal 7.477767004740419e-18 -1.871014405062601e-17 1.0
  outer loop
    vertex 94.58420670284617 83.7557788226535 -2.804642599999988
    vertex -15.006633297153861 80.6468188226535 -2.804642599999987
    vertex 94.58420670284617 80.6468188226535 -2.804642599999988
  endloop
endfacet
facet normal -7.656710514656246e-17 -1.0 0.0
  outer loop
    vertex 94.58420670284617 9.14073882265353 -9.408642599999988
    vertex -15.006633297153886 9.140738822653537 -6.360642599999989
    vertex -15.006633297153888 9.14073882265354 -9.408642599999988
  endloop
endfacet
facet normal -7.656710514656246e-17 -1.0 0.0
  outer loop
    vertex -15.006633297153886 9.140738822653537 -6.360642599999989
    vertex 94.58420670284617 9.14073882265353 -9.408642599999988
    vertex 94.58420670284617 9.140738822653532 -6.360642599999987
  endloop
endfacet
facet normal -1.0 0.0 0.0
  outer loop
    vertex 94.58420670284617 80.64681882265351 0.24335740000001144
    vertex 94.58420670284617 83.7557788226535 -2.804642599999988
    vertex 94.58420670284617 80.6468188226535 -2.804642599999988
  endloop
endfacet
facet normal -1.0 0.0 0.0
  outer loop
    vertex 94.58420670284617 83.7557788226535 -2.804642599999988
    vertex 94.58420670284617 80.64681882265351 0.24335740000001144
    vertex 94.58420670284617 83.75577882265353 0.24335740000001144
  endloop
endfacet
facet normal -1.0 3.921983510904087e-16 2.267612386897785e-16
  outer loop
    vertex -15.006633297153861 80.6468188226535 -6.360642599999989
    vertex -15.006633297153888 9.14073882265354 -9.408642599999988
    vertex -15.006633297153886 9.140738822653537 -6.360642599999989
  endloop
endfacet
facet normal -1.0 3.921983510904087e-16 2.267612386897785e-16
  outer loop
    vertex -15.006633297153888 9.14073882265354 -9.408642599999988
    vertex -15.006633297153861 80.6468188226535 -6.360642599999989
    vertex -15.006633297153861 80.6468188226535 -9.408642599999988
  endloop
endfacet
facet normal -1.0 3.5596405468917513e-16 1.9436677601981044e-16
  outer loop
    vertex -18.115593297153858 83.7557788226535 -2.804642599999988
    vertex -18.115593297153886 6.031778822653541 -6.36064259999999
    vertex -18.115593297153886 6.031778822653537 -2.8046425999999913
  endloop
endfacet
facet normal -1.0 3.5596405468917513e-16 1.9436677601981044e-16
  outer loop
    vertex -18.115593297153886 6.031778822653541 -6.36064259999999
    vertex -18.115593297153858 83.7557788226535 -2.804642599999988
    vertex -18.115593297153858 83.7557788226535 -6.360642599999987
  endloop
endfacet
facet normal -1.0 3.821419831137316e-16 -4.53522477379557e-16
  outer loop
    vertex -15.006633297153888 9.14073882265354 0.24335740000001282
    vertex -15.006633297153861 80.6468188226535 -2.804642599999987
    vertex -15.006633297153886 9.140738822653535 -2.804642599999987
  endloop
endfacet
facet normal -1.0 3.821419831137316e-16 -4.53522477379557e-16
  outer loop
    vertex -15.006633297153861 80.6468188226535 -2.804642599999987
    vertex -15.006633297153888 9.14073882265354 0.24335740000001282
    vertex -15.006633297153861 80.6468188226535 0.24335740000001282
  endloop
endfacet
facet normal 2.7306109127399653e-18 1.877166634681515e-17 -1.0
  outer loop
    vertex -18.115593297153858 83.7557788226535 -6.360642599999987
    vertex -15.006633297153861 80.6468188226535 -6.360642599999989
    vertex -15.006633297153886 9.140738822653537 -6.360642599999989
  endloop
endfacet
facet normal 2.7306109127399653e-18 1.877166634681515e-17 -1.0
  outer loop
    vertex -15.006633297153861 80.6468188226535 -6.360642599999989
    vertex -18.115593297153858 83.7557788226535 -6.360642599999987
    vertex 94.58420670284617 83.7557788226535 -6.360642599999987
  endloop
endfacet
facet normal 2.7306109127399653e-18 1.877166634681515e-17 -1.0
  outer loop
    vertex -15.006633297153861 80.6468188226535 -6.360642599999989
    vertex 94.58420670284617 83.7557788226535 -6.360642599999987
    vertex 94.58420670284617 80.6468188226535 -6.360642599999987
  endloop
endfacet
facet normal 2.7306109127399653e-18 1.877166634681515e-17 -1.0
  outer loop
    vertex -18.115593297153886 6.031778822653541 -6.36064259999999
    vertex -15.006633297153886 9.140738822653537 -6.360642599999989
    vertex 94.58420670284617 6.031778822653535 -6.36064259999999
  endloop
endfacet
facet normal 2.7306109127399653e-18 1.877166634681515e-17 -1.0
  outer loop
    vertex -15.006633297153886 9.140738822653537 -6.360642599999989
    vertex -18.115593297153886 6.031778822653541 -6.36064259999999
    vertex -18.115593297153858 83.7557788226535 -6.360642599999987
  endloop
endfacet
facet normal 2.7306109127399653e-18 1.877166634681515e-17 -1.0
  outer loop
    vertex 94.58420670284617 6.031778822653535 -6.36064259999999
    vertex -15.006633297153886 9.140738822653537 -6.360642599999989
    vertex 94.58420670284617 9.140738822653532 -6.360642599999987
  endloop
endfacet
facet normal -1.5313421029312498e-16 1.0 1.8140899095182295e-15
  outer loop
    vertex -15.006633297153861 80.6468188226535 -6.360642599999989
    vertex 94.58420670284617 80.64681882265351 -9.408642599999988
    vertex -15.006633297153861 80.6468188226535 -9.408642599999988
  endloop
endfacet
facet normal -1.5313421029312498e-16 1.0 1.8140899095182295e-15
  outer loop
    vertex 94.58420670284617 80.64681882265351 -9.408642599999988
    vertex -15.006633297153861 80.6468188226535 -6.360642599999989
    vertex 94.58420670284617 80.6468188226535 -6.360642599999987
  endloop
endfacet
endsolid Housing
